<svg xmlns="http://www.w3.org/2000/svg" width="924" height="900" font-family="monospace" font-size="14">
<rect width="100%" height="100%" fill="#ffffff"/>
<text xml:space="preserve">
<tspan x="0.0" y="12.0" fill="#ffffff">     .....:.             ......         ..:::::::::::::::::::::::::::::::::::::::::::::::::::::::--===--::::::</tspan>
<tspan x="0.0" y="27.0" fill="#ffffff">     .....:.             ......          .........:::::::::::::::::::::::::::::::::::::::::::::::--===--::::::</tspan>
<tspan x="0.0" y="42.0" fill="#ffffff">     .....:.             ......          .....    ..:::::::::::::::::::::::::::::::::::::::::::::--==--:::::::</tspan>
<tspan x="0.0" y="57.0" fill="#ffffff">     .....:.             ......          ....      ..::::::::::::::::::::::::::::::::::::::::::::--==--:::::::</tspan>
<tspan x="0.0" y="72.0" fill="#ffffff">     .....:.             ......          .....      ..::.....::::::::::::::::::::::::::::::::::::--==--:::::::</tspan>
<tspan x="0.0" y="87.0" fill="#ffffff">     .....:.             ......          ....       ..:...  ...::::::::::::::::::::::::::::::::::------:::::::</tspan>
<tspan x="0.0" y="102.0" fill="#ffffff">     .....:.             ......          ....       .....    ...:::::::::::::::::::::::::::::::::------:::::::</tspan>
<tspan x="0.0" y="117.0" fill="#ffffff">     .....:.             ......          ....       .....    ...:..:::::::::::::::::::::::::::::::----::......</tspan>
<tspan x="0.0" y="132.0" fill="#ffffff">     .....:.             ......          ....       ..... ..-</tspan><tspan x="512.4" y="132.0" fill="#e0242e">++*+*</tspan><tspan x="554.4" y="132.0" fill="#ffffff">=:::::::::::::::::::::::::::::::---..       </tspan>
<tspan x="0.0" y="147.0" fill="#ffffff">     .....:.             ......          ....       .=</tspan><tspan x="453.6" y="147.0" fill="#e0242e">**#**%##++###*###%#+</tspan><tspan x="621.6" y="147.0" fill="#ffffff">::::::::::::::::::::::::---.        </tspan>
<tspan x="0.0" y="162.0" fill="#ffffff">     .....:.             ......          ....  :-</tspan><tspan x="411.6" y="162.0" fill="#e0242e">*####*******###*##%%+####%+</tspan><tspan x="638.4" y="162.0" fill="#ffffff">:::::::::::::::::::::::--.        </tspan>
<tspan x="0.0" y="177.0" fill="#ffffff">     .......             ......         ..... </tspan><tspan x="386.4" y="177.0" fill="#e0242e">#%%#***##%@@%#*############%%#*</tspan><tspan x="646.8" y="177.0" fill="#ffffff">::::::::::::::::::::::-:.        </tspan>
<tspan x="0.0" y="192.0" fill="#ffffff">    ........             ......         .....</tspan><tspan x="378.0" y="192.0" fill="#e0242e">*##%%%@%%@%%%%%%%#%%#%%#####**#%%*</tspan><tspan x="663.6" y="192.0" fill="#ffffff">::::::::::::::::::::::.        </tspan>
<tspan x="0.0" y="207.0" fill="#ffffff">   .........             ......         ....</tspan><tspan x="369.6" y="207.0" fill="#e0242e">*%%%%#***+</tspan><tspan x="453.6" y="207.0" fill="#ffffff">=</tspan><tspan x="462.0" y="207.0" fill="#e0242e">++**#*****#%%%%%%%%%%%%%%</tspan><tspan x="672.0" y="207.0" fill="#ffffff">-::::::::::::::::::::.        </tspan>
<tspan x="0.0" y="222.0" fill="#ffffff">.....:......             ......        ...</tspan><tspan x="352.8" y="222.0" fill="#e0242e">+##%*</tspan><tspan x="394.8" y="222.0" fill="#ffffff">=------::::---------===</tspan><tspan x="588.0" y="222.0" fill="#e0242e">+*##%%%%%@%</tspan><tspan x="680.4" y="222.0" fill="#ffffff">::::::::::::::::::::.        </tspan>
<tspan x="0.0" y="237.0" fill="#ffffff">.....:....:..            .......     ....:</tspan><tspan x="352.8" y="237.0" fill="#e0242e">%%%</tspan><tspan x="378.0" y="237.0" fill="#ffffff">=-----:::::-:-:-::::-:-----==</tspan><tspan x="621.6" y="237.0" fill="#e0242e">++*%%%%</tspan><tspan x="680.4" y="237.0" fill="#ffffff">::::::::::::::::::::.        </tspan>
<tspan x="0.0" y="252.0" fill="#ffffff">.....:....:...           .......    .....</tspan><tspan x="344.4" y="252.0" fill="#e0242e">+##</tspan><tspan x="369.6" y="252.0" fill="#ffffff">=-----------------::-:--------===</tspan><tspan x="646.8" y="252.0" fill="#e0242e">+%%%#</tspan><tspan x="688.8" y="252.0" fill="#ffffff">:::::::::::::::::::.        </tspan>
<tspan x="0.0" y="267.0" fill="#ffffff">.....:....::...          .......    ....:</tspan><tspan x="344.4" y="267.0" fill="#e0242e">%#</tspan><tspan x="361.2" y="267.0" fill="#ffffff">=---=--------==------------=--=====</tspan><tspan x="655.2" y="267.0" fill="#e0242e">*%%@+</tspan><tspan x="697.2" y="267.0" fill="#ffffff">..::::::::::::::::.        </tspan>
<tspan x="0.0" y="282.0" fill="#ffffff">.....:....::..           .......    ....</tspan><tspan x="336.0" y="282.0" fill="#e0242e">*#</tspan><tspan x="352.8" y="282.0" fill="#ffffff">==------------------------==========</tspan><tspan x="655.2" y="282.0" fill="#e0242e">+#%%%</tspan><tspan x="697.2" y="282.0" fill="#ffffff">:...::::::::::::::.        </tspan>
<tspan x="0.0" y="297.0" fill="#ffffff">.....:....::..           .......    ....</tspan><tspan x="336.0" y="297.0" fill="#e0242e">#+</tspan><tspan x="352.8" y="297.0" fill="#ffffff">==-----::::::::----:::::---------====</tspan><tspan x="663.6" y="297.0" fill="#e0242e">*%%%</tspan><tspan x="697.2" y="297.0" fill="#ffffff">:....:::::::::::::.        </tspan>
<tspan x="0.0" y="312.0" fill="#ffffff">.....:....::..           .......    ...:</tspan><tspan x="336.0" y="312.0" fill="#e0242e">#</tspan><tspan x="344.4" y="312.0" fill="#ffffff">-===----::::::--::::::::::-------=====</tspan><tspan x="663.6" y="312.0" fill="#e0242e">#%%%</tspan><tspan x="697.2" y="312.0" fill="#ffffff">......::::::::::::.        </tspan>
<tspan x="0.0" y="327.0" fill="#ffffff">.....:....::..           .......   ....====---------------::--------------=====</tspan><tspan x="663.6" y="327.0" fill="#e0242e">+%@</tspan><tspan x="688.8" y="327.0" fill="#ffffff">=......::::::::::::.        </tspan>
<tspan x="0.0" y="342.0" fill="#ffffff">. ...:....:..            .......   ....=---=-------=========---=------------====</tspan><tspan x="672.0" y="342.0" fill="#e0242e">#%</tspan><tspan x="688.8" y="342.0" fill="#ffffff">:...........:::::::.        </tspan>
<tspan x="0.0" y="357.0" fill="#ffffff">   ..::...:..           ........   ..</tspan><tspan x="310.8" y="357.0" fill="#e0242e">%#@++++*########%#+</tspan><tspan x="470.4" y="357.0" fill="#ffffff">==</tspan><tspan x="487.2" y="357.0" fill="#e0242e">+</tspan><tspan x="495.6" y="357.0" fill="#ffffff">===</tspan><tspan x="520.8" y="357.0" fill="#e0242e">+#%%#*++</tspan><tspan x="588.0" y="357.0" fill="#ffffff">==</tspan><tspan x="604.8" y="357.0" fill="#e0242e">++###%#***</tspan><tspan x="688.8" y="357.0" fill="#ffffff">.............::::-:.       .</tspan>
<tspan x="0.0" y="372.0" fill="#ffffff">   ..::...:..           ........   ...</tspan><tspan x="319.2" y="372.0" fill="#e0242e">+***+***###%%%%##%%####%#%%%%%%%###***++%@#</tspan><tspan x="680.4" y="372.0" fill="#ffffff">.:............::::-:..      .</tspan>
<tspan x="0.0" y="387.0" fill="#ffffff">   ..::...:...          .........   ..=</tspan><tspan x="327.6" y="387.0" fill="#e0242e">#+*#%%*#%%%#%%##%#+</tspan><tspan x="487.2" y="387.0" fill="#ffffff">=</tspan><tspan x="495.6" y="387.0" fill="#e0242e">+#%#%%%%%%%#*****#*#*+</tspan><tspan x="680.4" y="387.0" fill="#ffffff">=</tspan><tspan x="688.8" y="387.0" fill="#e0242e">++</tspan><tspan x="705.6" y="387.0" fill="#ffffff">............:::-:..      .</tspan>
<tspan x="0.0" y="402.0" fill="#ffffff">   ..::...:...          .............:==-=</tspan><tspan x="352.8" y="402.0" fill="#e0242e">++*+****#***+*</tspan><tspan x="470.4" y="402.0" fill="#ffffff">=---</tspan><tspan x="504.0" y="402.0" fill="#e0242e">**#*##%#%%%#%@%%#**+</tspan><tspan x="672.0" y="402.0" fill="#ffffff">=</tspan><tspan x="680.4" y="402.0" fill="#e0242e">+*+</tspan><tspan x="705.6" y="402.0" fill="#ffffff">............:::-:..       </tspan>
<tspan x="0.0" y="417.0" fill="#ffffff">   ..::...:..          ..............-=-</tspan><tspan x="336.0" y="417.0" fill="#e0242e">+</tspan><tspan x="344.4" y="417.0" fill="#ffffff">-===</tspan><tspan x="378.0" y="417.0" fill="#e0242e">++++++++++</tspan><tspan x="462.0" y="417.0" fill="#ffffff">-:::--</tspan><tspan x="512.4" y="417.0" fill="#e0242e">+****#*******++</tspan><tspan x="638.4" y="417.0" fill="#ffffff">=</tspan><tspan x="646.8" y="417.0" fill="#e0242e">#</tspan><tspan x="655.2" y="417.0" fill="#ffffff">===</tspan><tspan x="680.4" y="417.0" fill="#e0242e">+</tspan><tspan x="688.8" y="417.0" fill="#ffffff">=</tspan><tspan x="697.2" y="417.0" fill="#e0242e">+</tspan><tspan x="705.6" y="417.0" fill="#ffffff">............:::--..       </tspan>
<tspan x="0.0" y="432.0" fill="#ffffff">   ..:....:..        ................-----=---==--==-</tspan><tspan x="445.2" y="432.0" fill="#e0242e">*</tspan><tspan x="453.6" y="432.0" fill="#ffffff">-::::--=</tspan><tspan x="520.8" y="432.0" fill="#e0242e">+*</tspan><tspan x="537.6" y="432.0" fill="#ffffff">============</tspan><tspan x="638.4" y="432.0" fill="#e0242e">+</tspan><tspan x="646.8" y="432.0" fill="#ffffff">-===</tspan><tspan x="680.4" y="432.0" fill="#e0242e">+</tspan><tspan x="688.8" y="432.0" fill="#ffffff">==............::---:..      </tspan>
<tspan x="0.0" y="447.0" fill="#ffffff">   ..:....:..       .................==-=--------=</tspan><tspan x="420.0" y="447.0" fill="#e0242e">+++</tspan><tspan x="445.2" y="447.0" fill="#ffffff">=-:..::-==</tspan><tspan x="529.2" y="447.0" fill="#e0242e">+*+++</tspan><tspan x="571.2" y="447.0" fill="#ffffff">=-:-=</tspan><tspan x="613.2" y="447.0" fill="#e0242e">+</tspan><tspan x="621.6" y="447.0" fill="#ffffff">---======:............::---:........</tspan>
<tspan x="0.0" y="462.0" fill="#ffffff">.  ..:.......       ................:-=---=-----==</tspan><tspan x="420.0" y="462.0" fill="#e0242e">+</tspan><tspan x="428.4" y="462.0" fill="#ffffff">-:-:::::::--=</tspan><tspan x="537.6" y="462.0" fill="#e0242e">*</tspan><tspan x="546.0" y="462.0" fill="#ffffff">=---------========.............::---....:---=</tspan>
<tspan x="0.0" y="477.0" fill="#ffffff">.  ..:.......      .....:::...:......========-====</tspan><tspan x="420.0" y="477.0" fill="#e0242e">+</tspan><tspan x="428.4" y="477.0" fill="#ffffff">-=</tspan><tspan x="445.2" y="477.0" fill="#e0242e">+</tspan><tspan x="453.6" y="477.0" fill="#ffffff">===--===--=</tspan><tspan x="546.0" y="477.0" fill="#e0242e">+</tspan><tspan x="554.4" y="477.0" fill="#ffffff">=--------=====</tspan><tspan x="672.0" y="477.0" fill="#e0242e">+</tspan><tspan x="680.4" y="477.0" fill="#ffffff">--.............::---.....-===</tspan>
<tspan x="0.0" y="492.0" fill="#ffffff">.....::::::::......:::::::::::::.....:</tspan><tspan x="319.2" y="492.0" fill="#e0242e">+</tspan><tspan x="327.6" y="492.0" fill="#ffffff">============</tspan><tspan x="428.4" y="492.0" fill="#e0242e">+%%%*****%@%*+++</tspan><tspan x="562.8" y="492.0" fill="#ffffff">==----=======</tspan><tspan x="672.0" y="492.0" fill="#e0242e">*</tspan><tspan x="680.4" y="492.0" fill="#ffffff">--.............::---....:-===</tspan>
<tspan x="0.0" y="507.0" fill="#ffffff">::::--------::......:::::::::::.......=</tspan><tspan x="327.6" y="507.0" fill="#e0242e">+</tspan><tspan x="336.0" y="507.0" fill="#ffffff">====</tspan><tspan x="369.6" y="507.0" fill="#e0242e">++++</tspan><tspan x="403.2" y="507.0" fill="#ffffff">=---=</tspan><tspan x="445.2" y="507.0" fill="#e0242e">+*###***++</tspan><tspan x="529.2" y="507.0" fill="#ffffff">=--=</tspan><tspan x="562.8" y="507.0" fill="#e0242e">+++</tspan><tspan x="588.0" y="507.0" fill="#ffffff">=========</tspan><tspan x="663.6" y="507.0" fill="#e0242e">+*</tspan><tspan x="680.4" y="507.0" fill="#ffffff">-..............::----::-=</tspan><tspan x="890.4" y="507.0" fill="#e0242e">++++</tspan>
<tspan x="0.0" y="522.0" fill="#ffffff">::.::------:..     ...::::::::::......-</tspan><tspan x="327.6" y="522.0" fill="#e0242e">**++++++**+++*#*#*+*#*#+</tspan><tspan x="529.2" y="522.0" fill="#ffffff">=--=</tspan><tspan x="562.8" y="522.0" fill="#e0242e">++++++</tspan><tspan x="613.2" y="522.0" fill="#ffffff">=</tspan><tspan x="621.6" y="522.0" fill="#e0242e">++++++</tspan><tspan x="672.0" y="522.0" fill="#ffffff">................::---:::-</tspan><tspan x="882.0" y="522.0" fill="#e0242e">+++++</tspan>
<tspan x="0.0" y="537.0" fill="#ffffff">.....::::::..       ....:::::::::::....</tspan><tspan x="327.6" y="537.0" fill="#e0242e">*#**</tspan><tspan x="361.2" y="537.0" fill="#ffffff">==</tspan><tspan x="378.0" y="537.0" fill="#e0242e">+#%%#*+++*+</tspan><tspan x="470.4" y="537.0" fill="#ffffff">===</tspan><tspan x="495.6" y="537.0" fill="#e0242e">+++*****+*****++++**</tspan><tspan x="663.6" y="537.0" fill="#ffffff">:................::---:.::=</tspan><tspan x="890.4" y="537.0" fill="#e0242e">++++</tspan>
<tspan x="0.0" y="552.0" fill="#ffffff">. ...::::::..       .....::..:::......:=</tspan><tspan x="336.0" y="552.0" fill="#e0242e">###+++###**++**######%%%%%%%#*++******</tspan><tspan x="655.2" y="552.0" fill="#ffffff">:.................::---:..:-</tspan><tspan x="890.4" y="552.0" fill="#e0242e">+***</tspan>
<tspan x="0.0" y="567.0" fill="#ffffff">   ..::..::...     .....:::........:</tspan><tspan x="302.4" y="567.0" fill="#e0242e">+***###*****+++++++</tspan><tspan x="462.0" y="567.0" fill="#ffffff">==</tspan><tspan x="478.8" y="567.0" fill="#e0242e">+</tspan><tspan x="487.2" y="567.0" fill="#ffffff">===</tspan><tspan x="512.4" y="567.0" fill="#e0242e">+++++*%%*+****##</tspan><tspan x="646.8" y="567.0" fill="#ffffff">...................::---:..::-=</tspan><tspan x="907.2" y="567.0" fill="#e0242e">+*</tspan>
<tspan x="0.0" y="582.0" fill="#ffffff">   ..::..:::.... .......::::==</tspan><tspan x="252.0" y="582.0" fill="#e0242e">++********</tspan><tspan x="336.0" y="582.0" fill="#ffffff">--</tspan><tspan x="352.8" y="582.0" fill="#e0242e">%%###**+++**####****+++++*##**###**</tspan><tspan x="646.8" y="582.0" fill="#ffffff">...................::----:::::--=</tspan>
<tspan x="0.0" y="597.0" fill="#ffffff">. ...::..:::..........:=</tspan><tspan x="201.6" y="597.0" fill="#e0242e">+***##***+******</tspan><tspan x="336.0" y="597.0" fill="#ffffff">::</tspan><tspan x="352.8" y="597.0" fill="#e0242e">#%%%%##**++*#%%%%%#****###%%###%%+</tspan><tspan x="638.4" y="597.0" fill="#ffffff">-</tspan><tspan x="646.8" y="597.0" fill="#e0242e">#*</tspan><tspan x="663.6" y="597.0" fill="#ffffff">:................::-----::::::-</tspan>
<tspan x="0.0" y="612.0" fill="#ffffff">....::....::.:--=</tspan><tspan x="142.8" y="612.0" fill="#e0242e">++++++****###*+++******</tspan><tspan x="336.0" y="612.0" fill="#ffffff">::</tspan><tspan x="352.8" y="612.0" fill="#e0242e">*#*%@%%##*+++**++++</tspan><tspan x="512.4" y="612.0" fill="#ffffff">=</tspan><tspan x="520.8" y="612.0" fill="#e0242e">+*####%%%%#+%*</tspan><tspan x="638.4" y="612.0" fill="#ffffff">:</tspan><tspan x="646.8" y="612.0" fill="#e0242e">#***+</tspan><tspan x="688.8" y="612.0" fill="#ffffff">=:............::-----:::::--</tspan>
<tspan x="0.0" y="627.0" fill="#ffffff">...::::.:</tspan><tspan x="75.6" y="627.0" fill="#e0242e">++++++*++++++++*#####**********</tspan><tspan x="336.0" y="627.0" fill="#ffffff">-:-</tspan><tspan x="361.2" y="627.0" fill="#e0242e">%**#@@%#****##*******#%%@@%%*+*%+</tspan><tspan x="638.4" y="627.0" fill="#ffffff">:</tspan><tspan x="646.8" y="627.0" fill="#e0242e">*#*##*****</tspan><tspan x="730.8" y="627.0" fill="#ffffff">-........::-----------=</tspan>
<tspan x="0.0" y="642.0" fill="#ffffff">.-=</tspan><tspan x="25.2" y="642.0" fill="#e0242e">+++++++*++**+++++++*#####**+*+******##</tspan><tspan x="344.4" y="642.0" fill="#ffffff">::=</tspan><tspan x="369.6" y="642.0" fill="#e0242e">%#**#%@%%%%%%%%%%%%%@@@%%*++*%#</tspan><tspan x="630.0" y="642.0" fill="#ffffff">=::</tspan><tspan x="655.2" y="642.0" fill="#e0242e">*###********</tspan><tspan x="756.0" y="642.0" fill="#ffffff">=:....::----====---=</tspan>
<tspan x="0.0" y="657.0" fill="#e0242e">++++++**++*++++*+**+***#*###++***+******#</tspan><tspan x="344.4" y="657.0" fill="#ffffff">..:</tspan><tspan x="369.6" y="657.0" fill="#e0242e">+%#***#%@@@@@@@@@@@@%%***++*#%</tspan><tspan x="621.6" y="657.0" fill="#ffffff">=-::</tspan><tspan x="655.2" y="657.0" fill="#e0242e">**###******#**+++</tspan><tspan x="798.0" y="657.0" fill="#ffffff">:::------------</tspan>
<tspan x="0.0" y="672.0" fill="#e0242e">+++++++*+*++*++***+*****##*##%**+**#**###</tspan><tspan x="344.4" y="672.0" fill="#ffffff">:..:</tspan><tspan x="378.0" y="672.0" fill="#e0242e">+%#*#####%%%%%%%%##****++*#%+</tspan><tspan x="621.6" y="672.0" fill="#ffffff">--::</tspan><tspan x="655.2" y="672.0" fill="#e0242e">#*##********#**#++++++</tspan><tspan x="840.0" y="672.0" fill="#ffffff">=---------</tspan>
<tspan x="0.0" y="687.0" fill="#e0242e">+****++++++++*++*****#**####*#*%*#*******+</tspan><tspan x="352.8" y="687.0" fill="#ffffff">..:-=</tspan><tspan x="394.8" y="687.0" fill="#e0242e">##***#######*##****++**#%+</tspan><tspan x="613.2" y="687.0" fill="#ffffff">=-:.:</tspan><tspan x="655.2" y="687.0" fill="#e0242e">####**#***####*+**+*+*++++</tspan><tspan x="873.6" y="687.0" fill="#ffffff">======</tspan>
<tspan x="0.0" y="702.0" fill="#e0242e">++*#*++++*+++*+*******####**+****+***#**#</tspan><tspan x="344.4" y="702.0" fill="#ffffff">=.</tspan><tspan x="361.2" y="702.0" fill="#e0242e">+@%</tspan><tspan x="386.4" y="702.0" fill="#ffffff">=:</tspan><tspan x="403.2" y="702.0" fill="#e0242e">##***************++*##%+</tspan><tspan x="604.8" y="702.0" fill="#ffffff">--:..:</tspan><tspan x="655.2" y="702.0" fill="#e0242e">#********######***********+*++++</tspan>
<tspan x="0.0" y="717.0" fill="#e0242e">*+****+++****+********###+***#*****#**#**+</tspan><tspan x="352.8" y="717.0" fill="#ffffff">=</tspan><tspan x="361.2" y="717.0" fill="#e0242e">#%%%#</tspan><tspan x="403.2" y="717.0" fill="#ffffff">-:</tspan><tspan x="420.0" y="717.0" fill="#e0242e">****++****++++++**##</tspan><tspan x="588.0" y="717.0" fill="#ffffff">==-:-:::</tspan><tspan x="655.2" y="717.0" fill="#e0242e">**#****##***###****+**********++</tspan>
<tspan x="0.0" y="732.0" fill="#e0242e">***#**++++***++*+*****###*+**#*****#****#%</tspan><tspan x="352.8" y="732.0" fill="#ffffff">=</tspan><tspan x="361.2" y="732.0" fill="#e0242e">%*#***+</tspan><tspan x="420.0" y="732.0" fill="#ffffff">=--=</tspan><tspan x="453.6" y="732.0" fill="#e0242e">+++++++</tspan><tspan x="512.4" y="732.0" fill="#ffffff">==</tspan><tspan x="529.2" y="732.0" fill="#e0242e">+++***</tspan><tspan x="579.6" y="732.0" fill="#ffffff">--:=</tspan><tspan x="613.2" y="732.0" fill="#e0242e">%@%*</tspan><tspan x="646.8" y="732.0" fill="#ffffff">:</tspan><tspan x="655.2" y="732.0" fill="#e0242e">#******#*****#**#*************+*</tspan>
<tspan x="0.0" y="747.0" fill="#e0242e">+</tspan><tspan x="8.4" y="747.0" fill="#ffffff">=</tspan><tspan x="16.8" y="747.0" fill="#e0242e">*#+**</tspan><tspan x="58.8" y="747.0" fill="#ffffff">=</tspan><tspan x="67.2" y="747.0" fill="#e0242e">+++*****++****#*****####*+*#****##</tspan><tspan x="352.8" y="747.0" fill="#ffffff">-</tspan><tspan x="361.2" y="747.0" fill="#e0242e">*+</tspan><tspan x="378.0" y="747.0" fill="#ffffff">=</tspan><tspan x="386.4" y="747.0" fill="#e0242e">++++</tspan><tspan x="420.0" y="747.0" fill="#ffffff">========-========-::-</tspan><tspan x="596.4" y="747.0" fill="#e0242e">**#%#+**#****#**#*****#***#****++*++*++</tspan>
<tspan x="0.0" y="762.0" fill="#e0242e">***#*****+******+++**###*+++****++********#</tspan><tspan x="361.2" y="762.0" fill="#ffffff">=</tspan><tspan x="369.6" y="762.0" fill="#e0242e">+</tspan><tspan x="378.0" y="762.0" fill="#ffffff">:-======--:-=---====:--</tspan><tspan x="571.2" y="762.0" fill="#e0242e">+**+</tspan><tspan x="604.8" y="762.0" fill="#ffffff">=</tspan><tspan x="613.2" y="762.0" fill="#e0242e">*#*+**#****#*********##*****++*******</tspan>
<tspan x="0.0" y="777.0" fill="#e0242e">***#++***********#**+*##*#++***++****#**##*</tspan><tspan x="361.2" y="777.0" fill="#ffffff">==:::--=-=---:==-=-:::-=</tspan><tspan x="562.8" y="777.0" fill="#e0242e">+++</tspan><tspan x="588.0" y="777.0" fill="#ffffff">---=</tspan><tspan x="621.6" y="777.0" fill="#e0242e">+++#***********#***#*#*****+**+**++*</tspan>
<tspan x="0.0" y="792.0" fill="#e0242e">#*****+******##****#*##**#+++***+**#****##*</tspan><tspan x="361.2" y="792.0" fill="#ffffff">--:::::--------==-:--=</tspan><tspan x="546.0" y="792.0" fill="#e0242e">++</tspan><tspan x="562.8" y="792.0" fill="#ffffff">=-::::--</tspan><tspan x="630.0" y="792.0" fill="#e0242e">+*#***************####***#*********</tspan>
<tspan x="0.0" y="807.0" fill="#e0242e">*********#*######*+*******++*****+*#*#*+**+</tspan><tspan x="361.2" y="807.0" fill="#ffffff">--:.:::::::---------==-:::::::::-</tspan><tspan x="638.4" y="807.0" fill="#e0242e">*#****************#*#***#+++******</tspan>
<tspan x="0.0" y="822.0" fill="#e0242e">#*##******######*****#*###*++***#*****##*#*</tspan><tspan x="361.2" y="822.0" fill="#ffffff">--:.::::::::::--:::::::::::.::::-</tspan><tspan x="638.4" y="822.0" fill="#e0242e">+##********+***+###*####**********</tspan>
<tspan x="0.0" y="837.0" fill="#e0242e">#*##***#*#*#####****##*+***+*+#***+*******#</tspan><tspan x="361.2" y="837.0" fill="#ffffff">-:-....::::::..::::::::.:...:::::</tspan><tspan x="638.4" y="837.0" fill="#e0242e">+#*+********#***#*###**##*********</tspan>
<tspan x="0.0" y="852.0" fill="#e0242e">%####***#########+***#***##+*+*********###*</tspan><tspan x="361.2" y="852.0" fill="#ffffff">::-:.:::::::...-:::.:::....::::::</tspan><tspan x="638.4" y="852.0" fill="#e0242e">*********+******#*####**#*###*****</tspan>
<tspan x="0.0" y="867.0" fill="#e0242e">%%#####*##########********##******+**+**#**</tspan><tspan x="361.2" y="867.0" fill="#ffffff">::-:..::::-:..:::::........:::::-</tspan><tspan x="638.4" y="867.0" fill="#e0242e">*#*#*******+****#***####**####****</tspan>
<tspan x="0.0" y="882.0" fill="#e0242e">#%%%###*###%######********#*************+**</tspan><tspan x="361.2" y="882.0" fill="#ffffff">::::.:::::......::-:.:.....::::::</tspan><tspan x="638.4" y="882.0" fill="#e0242e">**#************+#**#####**#####**#</tspan>
<tspan x="0.0" y="897.0" fill="#e0242e">*#%%######*#%#####***#****##**#*********+**</tspan><tspan x="361.2" y="897.0" fill="#ffffff">-:::..::::.......:=:::::..:::::::</tspan><tspan x="638.4" y="897.0" fill="#e0242e">****#***********############%####*</tspan>
</text></svg>