<svg width="520" height="260" xmlns="http://www.w3.org/2000/svg" style="font-family: -apple-system, BlinkMacSystemFont, 'SF Pro Display', 'Helvetica Neue', sans-serif;">

  <!-- Background -->
  <rect width="520" height="260" rx="16" fill="#F5F5F7"/>

  <!-- Title -->
  <text x="30" y="38" font-size="17" font-weight="600" fill="#1D1D1F" letter-spacing="-0.3">Learning Journey</text>
  <text x="30" y="56" font-size="11" fill="#86868B" letter-spacing="0.2">Progress toward mastery</text>

  <!-- Python Basics -->
  <text x="30" y="95" font-size="13" fill="#1D1D1F" font-weight="500">Python Basics</text>
  <text x="470" y="95" font-size="12" fill="#6E6E73" text-anchor="end" font-weight="500">100%</text>
  <rect x="30" y="102" width="460" height="6" rx="3" fill="#E8E8ED"/>
  <rect x="30" y="102" width="460" height="6" rx="3" fill="#34C759"/>

  <!-- C Programming -->
  <text x="30" y="135" font-size="13" fill="#1D1D1F" font-weight="500">C Programming</text>
  <text x="470" y="135" font-size="12" fill="#6E6E73" text-anchor="end" font-weight="500">100%</text>
  <rect x="30" y="142" width="460" height="6" rx="3" fill="#E8E8ED"/>
  <rect x="30" y="142" width="460" height="6" rx="3" fill="#FF9500"/>

  <!-- Python OOP -->
  <text x="30" y="175" font-size="13" fill="#1D1D1F" font-weight="500">Python OOP</text>
  <text x="470" y="175" font-size="12" fill="#6E6E73" text-anchor="end" font-weight="500">50%</text>
  <rect x="30" y="182" width="460" height="6" rx="3" fill="#E8E8ED"/>
  <rect x="30" y="182" width="230" height="6" rx="3" fill="#0071E3"/>

  <!-- Striver DSA Sheet -->
  <text x="30" y="215" font-size="13" fill="#1D1D1F" font-weight="500">Striver DSA Sheet</text>
  <text x="470" y="215" font-size="12" fill="#6E6E73" text-anchor="end" font-weight="500">30%</text>
  <rect x="30" y="222" width="460" height="6" rx="3" fill="#E8E8ED"/>
  <rect x="30" y="222" width="138" height="6" rx="3" fill="#AF52DE"/>

  <!-- Subtle border -->
  <rect width="520" height="260" rx="16" fill="none" stroke="#D2D2D7" stroke-width="1"/>

</svg>
